<?xml version="1.0" encoding="UTF-8"?>
<svg id="Layer_1" data-name="Layer 1" xmlns="http://www.w3.org/2000/svg" viewBox="0 0 807.2 245.3">
  <defs>
    <style>
      .cls-1 {
        fill: #f3c245;
      }
    </style>
  </defs>
  <path d="M774.2,182.3l32.8-35.6-38.8-30.6V51.5h-.1l-39.7-31.2v-.3h-28.8v32.6l-8.5-6.8c-5.6-4.7-13.3-7.1-23.2-7.1h-.2c-4.7,0-9.4.6-13.8,1.7-4.3,1.1-8.4,2.8-12.2,5.2l-3.7,2.3-35.4-27.9h-28.8v39.9c-.6-2-1.5-3.9-2.6-5.8l-.1-.1c-3.1-5-7.5-9-12.8-11.6-5.4-2.5-11.5-3.9-17.5-3.9-2.9,0-5.7.3-8.5.9l-24.6-19.4h-28.8v17.9l-.6-.8c-3.9-4.6-8.9-8.3-14.5-10.6h-.1c-6.1-2.5-12.5-3.7-19-3.6-7.5-.1-15,1.6-21.8,5.1-3.2,1.5-6,3.6-8.6,5.9l-12.3-9.7h-29.6v12.4l-15.8-12.4h-91.3v-.1h-63.7v78.2l16.3,12.9h-16.3v38.37L131.4,31.5,91.5,0,0,156.3l39.9,31.5,63.7,41.8.2-3.4,10.9,8.7,2.2,1.7,14.1,8.7,15.4-10.2,2-12.3,9.1,7.2,49.29-32.4,34.71,27.4h29.3v-17.6l22.3,17.5h23.5v-1l1.2,1h64.9v-13.8l17.5,13.8h28.1l8.9-27.1,10.1,27.1h28.1l15.2-46.7v15.2l39.9,31.5h29.6v-27.8l23.7,18.8c.9.9,1.8,1.6,2.8,2.3l.1.1c1.5,1,3,2,4.7,2.9l.1.1c6.7,3.4,14.3,5.1,21.7,5.1s15-1.7,21.7-5.1h.1c2.7-1.4,5.2-3.2,7.5-5.2l11.3,9h29.6v-11.7l14.7,11.7h54.9v-14.8l18.8,14.8h35.4l-33-42.8Z"/>
  <path class="cls-1" d="M261.3,81.8v14.8h-54.5V28.7h53.2v14.8h-34.2v11.5h30.1v14.3h-30.1v12.4l35.5.1Z"/>
  <path class="cls-1" d="M286.4,44h-20.8v-15.2h60.8v15.2h-20.8v52.6h-19.2v-52.6Z"/>
  <path class="cls-1" d="M396.7,28.7v67.8h-19.2v-26.4h-26.2v26.5h-19.2V28.7h19.2v25.5h26.2v-25.5h19.2Z"/>
  <path class="cls-1" d="M455.7,61.2h17v28.1c-4.1,2.9-8.6,5-13.4,6.4-4.9,1.5-10,2.2-15.1,2.2-6.7.1-13.3-1.4-19.2-4.5-5.5-2.9-10.2-7.2-13.4-12.6-3.2-5.5-4.8-11.8-4.8-18.2s1.7-12.7,4.8-18.2c3.2-5.4,7.9-9.7,13.5-12.5,6-3.1,12.7-4.6,19.5-4.5,5.8-.1,11.6,1,17.1,3.2,4.9,2,9.2,5.2,12.6,9.2l-12.3,11c-2-2.4-4.6-4.3-7.4-5.6s-5.9-2-9.1-2c-2.6-.1-5.2.3-7.6,1.2s-4.6,2.3-6.5,4.1c-3.6,3.5-5.4,8.2-5.4,14.1-.1,3.5.8,6.9,2.4,10,1.6,2.9,3.9,5.3,6.7,6.9,3.1,1.7,6.5,2.5,10,2.5s7.1-.7,10.4-2.2l.2-18.6Z"/>
  <path class="cls-1" d="M484,24.7h18.4v71.9h-18.4V24.7Z"/>
  <path class="cls-1" d="M525.5,94c-4.4-2.2-8.1-5.6-10.7-9.8s-3.9-9-3.8-14c-.1-4.9,1.2-9.7,3.8-13.9,2.5-4.2,6.2-7.5,10.6-9.7,4.8-2.3,10-3.4,15.3-3.4s10.5,1.2,15.3,3.4c4.4,2.1,8,5.5,10.6,9.6,2.5,4.3,3.8,9.1,3.8,14s-1.3,9.8-3.8,14-6.2,7.5-10.6,9.7c-4.8,2.3-10,3.5-15.3,3.5s-10.5-1.1-15.2-3.4h0ZM548.7,79.5c2.2-2.6,3.3-5.9,3.1-9.3.2-3.3-.9-6.6-3.1-9.1-2.1-2.1-5-3.3-7.9-3.3s-5.8,1.2-8,3.3c-2.2,2.5-3.3,5.8-3.1,9.1-.2,3.4.9,6.7,3.1,9.3,1,1.1,2.3,1.9,3.6,2.5,1.4.6,2.8.9,4.3.9s2.9-.3,4.3-.9c1.4-.6,2.6-1.5,3.7-2.5Z"/>
  <path class="cls-1" d="M625,46.5c3.9,2.2,7.1,5.5,9.3,9.4,2.3,4.4,3.4,9.3,3.4,14.3s-1.2,9.9-3.4,14.3c-2.2,4-5.4,7.3-9.3,9.5-4,2.2-8.5,3.4-13,3.3-6.9,0-12.1-2-15.5-6.1v5.2h-17.5V24.7h18.4v23.9c3.5-3.6,8.4-5.4,14.6-5.4,4.5,0,9,1.1,13,3.3ZM616,79.5c2.2-2.6,3.3-5.9,3.1-9.3.2-3.3-.9-6.6-3.1-9.1-2.1-2.1-5-3.3-7.9-3.3s-5.8,1.2-8,3.3c-2.2,2.5-3.3,5.8-3.1,9.1-.2,3.4.9,6.7,3.1,9.3,1,1.1,2.3,1.9,3.6,2.5,1.4.6,2.8.9,4.3.9s2.9-.3,4.3-.9c1.4-.6,2.7-1.5,3.7-2.5Z"/>
  <path class="cls-1" d="M687.5,49.1c4.6,4,6.9,10.1,6.9,18.3v29.2h-17.2v-6.7c-2.7,5.1-7.9,7.7-15.5,7.6-3.6.1-7.2-.6-10.6-2.1-2.8-1.2-5.1-3.2-6.7-5.8-1.5-2.5-2.3-5.4-2.3-8.3-.1-2.3.4-4.5,1.4-6.5s2.5-3.8,4.3-5.1c3.8-2.7,9.7-4.1,17.6-4.1h10.5c-.3-5.6-4-8.3-11.1-8.3-2.6,0-5.2.4-7.7,1.2-2.4.7-4.6,1.8-6.6,3.4l-6.2-12.5c3.3-2.1,6.8-3.6,10.6-4.5,4.1-1.1,8.3-1.6,12.5-1.6,8.8-.1,15.5,1.9,20.1,5.8ZM672.4,84.3c1.7-1.1,2.9-2.7,3.5-4.6v-4.6h-8c-5.4,0-8.1,1.8-8.1,5.4,0,.7.1,1.5.4,2.2.3.7.8,1.3,1.4,1.7,1.5,1,3.2,1.6,5,1.5,2.2,0,4.1-.5,5.8-1.6Z"/>
  <path class="cls-1" d="M704.6,24.7h18.4v71.9h-18.4V24.7Z"/>
  <path class="cls-1" d="M271.3,119.9v67.9h-15.8l-30-36.1v36.1h-18.8v-67.9h15.8l30,36.2v-36.2h18.8Z"/>
  <path class="cls-1" d="M337.4,172.9v14.8h-54.4v-67.8h53.2v14.8h-34.2v11.4h30.1v14.4h-30.1v12.4h35.4Z"/>
  <path class="cls-1" d="M453.6,119.9l-22,67.9h-20.6l-13-41.3-13.6,41.3h-20.5l-22-67.9h19.8l13.7,43.3,14.4-43.3h17.6l13.7,43.7,14.3-43.7s18.2,0,18.2,0Z"/>
  <path class="cls-1" d="M514.8,163.4v24.3h-19.2v-24.6l-25.9-43.2h20.3l16.1,26.9,16.2-26.9h18.6l-26.1,43.5Z"/>
  <path class="cls-1" d="M553.7,184.5c-5.6-2.9-10.3-7.4-13.6-12.8s-5-11.6-5-18,1.7-12.5,5-18,8-9.8,13.6-12.8c6-3,12.6-4.6,19.3-4.6s13.3,1.6,19.3,4.6c5.6,2.9,10.3,7.4,13.6,12.8s5,11.6,5,18-1.7,12.5-5,18-8,9.8-13.6,12.8c-6,3-12.6,4.5-19.3,4.5-6.6.1-13.3-1.5-19.3-4.5ZM582.4,170.8c2.8-1.6,5.1-4,6.6-6.8,1.6-3.1,2.4-6.6,2.4-10.1s-.8-7-2.4-10.1c-1.5-2.8-3.8-5.2-6.6-6.8s-6-2.4-9.3-2.4-6.5.8-9.3,2.4c-2.8,1.6-5.1,4-6.6,6.8-1.6,3.1-2.4,6.6-2.4,10.1s.8,7,2.4,10.1c1.5,2.8,3.8,5.2,6.6,6.8s6,2.4,9.3,2.4,6.4-.9,9.3-2.4Z"/>
  <path class="cls-1" d="M648.6,169.7h-10.5v18h-19.2v-67.8h31c5.5-.1,10.9.9,16,3.1,4.3,1.8,7.9,4.9,10.5,8.7,2.5,4,3.8,8.6,3.7,13.3.1,4.5-1.1,9-3.4,12.8-2.4,3.7-5.8,6.7-9.8,8.6l14.6,21.3h-20.6l-12.3-18ZM657.7,137.6c-2-1.8-5-2.6-8.9-2.6h-10.7v19.9h10.7c3.9,0,6.9-.9,8.9-2.6,1-.9,1.8-2,2.3-3.3s.8-2.6.7-4c.1-1.4-.2-2.8-.7-4-.5-1.3-1.3-2.5-2.3-3.4Z"/>
  <path class="cls-1" d="M714.9,163.1l-7.2,7.7v17h-19v-67.9h19v28.3l26.3-28.3h21.1l-27.7,30,29.2,37.8h-22.3l-19.4-24.6Z"/>
  <path class="cls-1" d="M6.8,154.1l51.9,34.1,2.6-71.2v-.6c0-.1.1-.1.1-.2.1-.3.3-.6.5-.8v-.1h.1c0-.1.1-.1.3-.1.1,0,.1-.1.3-.1.1,0,.2-.1.3-.1s.3-.1.4-.1h3.4v-5.4c0-.3.1-.7.2-1s.3-.6.6-.8c.2-.2.5-.4.8-.6.3-.1.7-.2,1-.2h7.3l1.6-3.4,3.5-7.6,3.5-7.4,1.8-3.8c.5-.6,1.2-1.3,1.7-1.9l1.8-52.3,1.5,52.2c.6.6,1.2,1.3,1.7,1.9l1.8,3.8,3.5,7.5,3.5,7.4,1.6,3.4h7.8c.3,0,.7.1,1,.2s.6.3.8.6c.2.2.4.5.6.8.1.3.2.6.2,1v5.4h3.2c.1,0,.1.1.2.1s.2,0,.3.1c.1,0,.1.1.3.1.1,0,.1.1.3.1l.3.3.1.1.1.1c0,.1.1.1.1.2v.3c0,.1.1.1.1.3s0,.1.1.3v.5l2.6,71.2,52.1-34.2L91.3,9.8,6.8,154.1ZM79.4,200l.6.5,10.8,6.5,10.8-7.1,12.4-80.3h-47.2l12.6,80.4Z"/>
</svg>